<?xml version="1.0" encoding="utf-8"?>
<!-- Svg Vector Icons : http://www.onlinewebfonts.com/icon -->
<!DOCTYPE svg PUBLIC "-//W3C//DTD SVG 1.1//EN" "http://www.w3.org/Graphics/SVG/1.1/DTD/svg11.dtd">
<svg version="1.1" xmlns="http://www.w3.org/2000/svg" xmlns:xlink="http://www.w3.org/1999/xlink" x="0px" y="0px" viewBox="0 0 1000 1000" enable-background="new 0 0 1000 1000" xml:space="preserve">
<metadata> Svg Vector Icons : http://www.onlinewebfonts.com/icon </metadata>
<g><path d="M908.3,244.3H681.1v-63.8c0-58.8-62.9-106.7-140.3-106.7h-85.2c-76.6,0-136.6,46.9-136.6,106.7v63.8H98.6c-49.6,0-88.6,35.2-88.6,80v69.1v53.3v48.1c0,7.8,4.3,15.1,11.2,18.8c1.8,0.9,13,6.8,31.4,15.6v349c0,23.1,16.3,47.8,40.8,47.8h809.5c25.1,0,44.5-25.6,44.5-47.8v-349c18.4-8.8,29.5-14.7,31.3-15.7c7-3.7,11.2-10.9,11.2-18.8v-48v-53.3v-69.1C990.1,278,955.6,244.3,908.3,244.3 M371.6,180.6c0-35.3,32-53.9,83.9-53.9h85.2c52.1,0,87.7,19.8,87.7,53.9v63.8H371.6L371.6,180.6L371.6,180.6z M894.7,863.9c0,1.5-1.9,4.3-3.4,5.4H106.7c-0.7-1.3-1.3-3.3-1.3-5.2V548.8c71.9,31.3,167.2,74.6,288.7,91v20.1c0,23.5,19.1,42.6,42.6,42.6h126.8c23.5,0,42.6-19.1,42.6-42.6v-20c121.5-16.5,216.8-59.7,288.7-91.1L894.7,863.9L894.7,863.9z M446.7,659.8V553.3h106.5v106.5H446.7L446.7,659.8z M937.3,471.6c-41.8,20.8-172.8,92.1-331.3,114.9v-33.3c0-23.5-19.1-42.6-42.6-42.6H436.6c-23.5,0-42.6,19.1-42.6,42.6v33.3c-158.4-22.7-289.5-94-331.2-114.9v-26.9v-51.2v-69.1c0-23.4,13.3-27.3,35.9-27.3h809.6c23.8,0,29.1,4.6,29.1,27.3v69.1v43.1V471.6L937.3,471.6z"/></g>
</svg>